<svg version="1.1" viewBox="0.0 0.0 960.0 720.0" fill="none" stroke="none" stroke-linecap="square" stroke-miterlimit="10" xmlns:xlink="http://www.w3.org/1999/xlink" xmlns="http://www.w3.org/2000/svg"><clipPath id="p.0"><path d="m0 0l960.0 0l0 720.0l-960.0 0l0 -720.0z" clip-rule="nonzero"/></clipPath><g clip-path="url(#p.0)"><path fill="#000000" fill-opacity="0.0" d="m0 0l960.0 0l0 720.0l-960.0 0z" fill-rule="evenodd"/><path fill="#000000" fill-opacity="0.0" d="m204.71129 298.8294l0 0c0 -43.860992 35.28842 -79.41733 78.81889 -79.41733l0 0c20.904083 0 40.951965 8.367157 55.733368 23.260788c14.781433 14.893631 23.08554 35.093735 23.08554 56.15654l0 0c0 43.860962 -35.28842 79.4173 -78.81891 79.4173l0 0c-43.53047 0 -78.81889 -35.556335 -78.81889 -79.4173z" fill-rule="evenodd"/><path stroke="#ffffff" stroke-width="12.0" stroke-linejoin="round" stroke-linecap="butt" d="m204.71129 298.8294l0 0c0 -43.860992 35.28842 -79.41733 78.81889 -79.41733l0 0c20.904083 0 40.951965 8.367157 55.733368 23.260788c14.781433 14.893631 23.08554 35.093735 23.08554 56.15654l0 0c0 43.860962 -35.28842 79.4173 -78.81891 79.4173l0 0c-43.53047 0 -78.81889 -35.556335 -78.81889 -79.4173z" fill-rule="evenodd"/><path fill="#6f6f6f" d="m215.29396 298.8294l0 0c0 -38.338135 30.5504 -69.41733 68.23622 -69.41733l0 0c18.097382 0 35.45352 7.3135834 48.250305 20.331863c12.796753 13.018265 19.985931 30.67485 19.985931 49.085464l0 0c0 38.338104 -30.550415 69.4173 -68.23624 69.4173l0 0c-37.68582 0 -68.23622 -31.079193 -68.23622 -69.4173z" fill-rule="evenodd"/><path stroke="#b4b4b4" stroke-width="8.0" stroke-linejoin="round" stroke-linecap="butt" d="m215.29396 298.8294l0 0c0 -38.338135 30.5504 -69.41733 68.23622 -69.41733l0 0c18.097382 0 35.45352 7.3135834 48.250305 20.331863c12.796753 13.018265 19.985931 30.67485 19.985931 49.085464l0 0c0 38.338104 -30.550415 69.4173 -68.23624 69.4173l0 0c-37.68582 0 -68.23622 -31.079193 -68.23622 -69.4173z" fill-rule="evenodd"/><path fill="#000000" fill-opacity="0.0" d="m552.94226 431.7638l1.1653442 -280.0" fill-rule="evenodd"/><path stroke="#3676e0" stroke-width="4.0" stroke-linejoin="round" stroke-linecap="butt" d="m552.94226 431.7638l1.0654297 -256.0002" fill-rule="evenodd"/><path fill="#3676e0" stroke="#3676e0" stroke-width="4.0" stroke-linecap="butt" d="m560.6146 175.79106l-6.531372 -18.179718l-6.682373 18.124725z" fill-rule="evenodd"/><path fill="#000000" fill-opacity="0.0" d="m670.58795 323.53018l112.944885 112.944885" fill-rule="evenodd"/><path stroke="#3676e0" stroke-width="4.0" stroke-linejoin="round" stroke-linecap="butt" d="m670.58795 323.53018l95.974304 95.974335" fill-rule="evenodd"/><path fill="#3676e0" stroke="#3676e0" stroke-width="4.0" stroke-linecap="butt" d="m761.89044 424.1763l17.507507 8.163879l-8.163879 -17.507477z" fill-rule="evenodd"/><path fill="#000000" fill-opacity="0.0" d="m728.2336 210.58792l115.30713 -91.748024" fill-rule="evenodd"/><path stroke="#3676e0" stroke-width="4.0" stroke-linejoin="round" stroke-linecap="butt" d="m728.2336 210.58792l115.30713 -91.748024" fill-rule="evenodd"/><path fill="#000000" fill-opacity="0.0" d="m457.17847 673.6457l1.1653748 -280.00003" fill-rule="evenodd"/><path stroke="#3676e0" stroke-width="4.0" stroke-linejoin="round" stroke-linecap="butt" d="m457.17847 673.6457l1.1653748 -280.00003" fill-rule="evenodd"/><path fill="#000000" fill-opacity="0.0" d="m646.58795 493.6483l112.944885 112.944916" fill-rule="evenodd"/><path stroke="#3676e0" stroke-width="4.0" stroke-linejoin="round" stroke-linecap="butt" d="m646.58795 493.6483l112.944885 112.944916" fill-rule="evenodd"/><path fill="#000000" fill-opacity="0.0" d="m645.4068 104.23622l115.30713 -91.74803" fill-rule="evenodd"/><path stroke="#3676e0" stroke-width="4.0" stroke-linejoin="round" stroke-linecap="butt" d="m645.4068 104.23622l96.52673 -76.804825" fill-rule="evenodd"/><path fill="#3676e0" stroke="#3676e0" stroke-width="4.0" stroke-linecap="butt" d="m746.0473 32.601406l10.090759 -16.4723l-18.318176 6.1322784z" fill-rule="evenodd"/><path fill="#3676e0" d="m425.8819 107.06562l29.417328 -29.417328l29.417297 29.417328l-14.708649 0l0 129.41733l-29.417328 0l0 -129.41733z" fill-rule="evenodd"/><path fill="#3676e0" d="m817.6483 316.46982l29.417297 -43.527557l29.417297 43.527557z" fill-rule="evenodd"/></g></svg>